<svg width="1200" height="1200" viewBox="0 0 1200 1200" fill="none" xmlns="http://www.w3.org/2000/svg">
  <rect width="1200" height="1200" rx="48" fill="#22090A"/>
  <rect x="40" y="40" width="1120" height="1120" rx="36" fill="#2C0E10" stroke="#71363A" stroke-width="8"/>
  <rect x="150" y="150" width="260" height="220" rx="22" fill="#4C171B" stroke="#B04B53" stroke-width="6"/>
  <rect x="470" y="120" width="260" height="220" rx="22" fill="#4C171B" stroke="#B04B53" stroke-width="6"/>
  <rect x="790" y="150" width="260" height="220" rx="22" fill="#4C171B" stroke="#B04B53" stroke-width="6"/>
  <rect x="120" y="470" width="220" height="260" rx="22" fill="#4C171B" stroke="#B04B53" stroke-width="6"/>
  <rect x="860" y="470" width="220" height="260" rx="22" fill="#4C171B" stroke="#B04B53" stroke-width="6"/>
  <rect x="150" y="830" width="260" height="220" rx="22" fill="#4C171B" stroke="#B04B53" stroke-width="6"/>
  <rect x="470" y="860" width="260" height="220" rx="22" fill="#4C171B" stroke="#B04B53" stroke-width="6"/>
  <rect x="790" y="830" width="260" height="220" rx="22" fill="#4C171B" stroke="#B04B53" stroke-width="6"/>
  <circle cx="600" cy="600" r="180" fill="#3C1014" stroke="#E2B668" stroke-width="10" stroke-dasharray="14 12"/>
  <path d="M280 370L470 230" stroke="#B04B53" stroke-width="14" stroke-linecap="round"/>
  <path d="M730 230L920 370" stroke="#B04B53" stroke-width="14" stroke-linecap="round"/>
  <path d="M230 600H420" stroke="#B04B53" stroke-width="14" stroke-linecap="round"/>
  <path d="M780 600H970" stroke="#B04B53" stroke-width="14" stroke-linecap="round"/>
  <path d="M280 830L470 970" stroke="#B04B53" stroke-width="14" stroke-linecap="round"/>
  <path d="M730 970L920 830" stroke="#B04B53" stroke-width="14" stroke-linecap="round"/>
  <text x="280" y="260" fill="#F7D38B" font-size="34" font-family="monospace" text-anchor="middle">CAMARA</text>
  <text x="280" y="305" fill="#F7D38B" font-size="34" font-family="monospace" text-anchor="middle">ANECOICA</text>
  <text x="600" y="245" fill="#F7D38B" font-size="34" font-family="monospace" text-anchor="middle">SALA</text>
  <text x="600" y="290" fill="#F7D38B" font-size="34" font-family="monospace" text-anchor="middle">LAMARR</text>
  <text x="920" y="260" fill="#F7D38B" font-size="34" font-family="monospace" text-anchor="middle">CENTRAL</text>
  <text x="920" y="305" fill="#F7D38B" font-size="34" font-family="monospace" text-anchor="middle">CONMUTACION</text>
  <text x="230" y="590" fill="#F7D38B" font-size="34" font-family="monospace" text-anchor="middle">HAYKIN</text>
  <text x="970" y="590" fill="#F7D38B" font-size="34" font-family="monospace" text-anchor="middle">CLUB RADIO</text>
  <text x="280" y="940" fill="#F7D38B" font-size="34" font-family="monospace" text-anchor="middle">LAB</text>
  <text x="280" y="985" fill="#F7D38B" font-size="34" font-family="monospace" text-anchor="middle">OPTICAS</text>
  <text x="600" y="955" fill="#F7D38B" font-size="34" font-family="monospace" text-anchor="middle">LAB</text>
  <text x="600" y="1000" fill="#F7D38B" font-size="34" font-family="monospace" text-anchor="middle">ELECTRONICA</text>
  <text x="920" y="940" fill="#F7D38B" font-size="34" font-family="monospace" text-anchor="middle">SEMINARIO</text>
  <text x="920" y="985" fill="#F7D38B" font-size="34" font-family="monospace" text-anchor="middle">MAXWELL</text>
  <text x="600" y="585" fill="#F7D38B" font-size="44" font-family="monospace" text-anchor="middle">CLUEDO</text>
  <text x="600" y="640" fill="#F7D38B" font-size="44" font-family="monospace" text-anchor="middle">ONLINE</text>
</svg>